{
    "asset" : {
        "generator" : "Khronos glTF Blender I/O v1.7.33",
        "version" : "2.0"
    },
    "scene" : 0,
    "scenes" : [
        {
            "name" : "Scene",
            "nodes" : [
                0
            ]
        }
    ],
    "nodes" : [
        {
            "mesh" : 0,
            "name" : "10605_Slot_Car_Race_Track_v1_L3.001"
        }
    ],
    "materials" : [
        {
            "doubleSided" : true,
            "emissiveFactor" : [
                0.5254999995231628,
                0.5254999995231628,
                0.5254999995231628
            ],
            "name" : "10605_Slot_Car_Race_Track_v1_Mat.001",
            "pbrMetallicRoughness" : {
                "baseColorTexture" : {
                    "index" : 0
                },
                "metallicFactor" : 0,
                "roughnessFactor" : 0.8945907354354858
            }
        }
    ],
    "meshes" : [
        {
            "name" : "10605_Slot_Car_Race_Track_v1_L3.001",
            "primitives" : [
                {
                    "attributes" : {
                        "POSITION" : 0,
                        "NORMAL" : 1,
                        "TEXCOORD_0" : 2
                    },
                    "indices" : 3,
                    "material" : 0
                }
            ]
        }
    ],
    "textures" : [
        {
            "sampler" : 0,
            "source" : 0
        }
    ],
    "images" : [
        {
            "bufferView" : 4,
            "mimeType" : "image/jpeg",
            "name" : "10605_Slot_Car_Race_Track_v1"
        }
    ],
    "accessors" : [
        {
            "bufferView" : 0,
            "componentType" : 5126,
            "count" : 32832,
            "max" : [
                34,
                3.989799976348877,
                60.66379928588867
            ],
            "min" : [
                -34,
                0.008500000461935997,
                -60.66379928588867
            ],
            "type" : "VEC3"
        },
        {
            "bufferView" : 1,
            "componentType" : 5126,
            "count" : 32832,
            "type" : "VEC3"
        },
        {
            "bufferView" : 2,
            "componentType" : 5126,
            "count" : 32832,
            "type" : "VEC2"
        },
        {
            "bufferView" : 3,
            "componentType" : 5123,
            "count" : 184320,
            "type" : "SCALAR"
        }
    ],
    "bufferViews" : [
        {
            "buffer" : 0,
            "byteLength" : 393984,
            "byteOffset" : 0
        },
        {
            "buffer" : 0,
            "byteLength" : 393984,
            "byteOffset" : 393984
        },
        {
            "buffer" : 0,
            "byteLength" : 262656,
            "byteOffset" : 787968
        },
        {
            "buffer" : 0,
            "byteLength" : 368640,
            "byteOffset" : 1050624
        },
        {
            "buffer" : 0,
            "byteLength" : 207621,
            "byteOffset" : 1419264
        }
    ],
    "samplers" : [
        {
            "magFilter" : 9729,
            "minFilter" : 9987
        }
    ],
    "buffers" : [
        {
            "byteLength" : 1626888,
            "uri" : "data:application/octet-stream;base64,"
        }
    ]
}
