{
  "accessors": [
    {
      "bufferView": 2,
      "componentType": 5126,
      "count": 9123,
      "max": [
        29.343578338623047,
        14.978059768676758,
        3.8916139602661133
      ],
      "min": [
        -29.312870025634766,
        -14.97770881652832,
        -0.6752663254737854
      ],
      "type": "VEC3"
    },
    {
      "bufferView": 2,
      "byteOffset": 109476,
      "componentType": 5126,
      "count": 9123,
      "max": [
        0.9980552792549133,
        0.9975613951683044,
        1.0
      ],
      "min": [
        -0.9980418682098389,
        -0.9975057244300842,
        -0.9995700120925903
      ],
      "type": "VEC3"
    },
    {
      "bufferView": 1,
      "componentType": 5126,
      "count": 9123,
      "max": [
        0.9836521148681641,
        0.9836521148681641
      ],
      "min": [
        0.016347914934158325,
        0.016347914934158325
      ],
      "type": "VEC2"
    },
    {
      "bufferView": 0,
      "componentType": 5125,
      "count": 41184,
      "type": "SCALAR"
    },
    {
      "bufferView": 2,
      "byteOffset": 218952,
      "componentType": 5126,
      "count": 16896,
      "max": [
        29.091373443603516,
        14.7250337600708,
        4.493086814880371
      ],
      "min": [
        -29.060495376586914,
        -14.72484302520752,
        -0.5373520851135254
      ],
      "type": "VEC3"
    },
    {
      "bufferView": 2,
      "byteOffset": 421704,
      "componentType": 5126,
      "count": 16896,
      "max": [
        0.9999537467956543,
        0.9999523758888245,
        0.9999999403953552
      ],
      "min": [
        -0.9999538064002991,
        -0.9999524354934692,
        -0.9999999403953552
      ],
      "type": "VEC3"
    },
    {
      "bufferView": 1,
      "byteOffset": 72984,
      "componentType": 5126,
      "count": 16896,
      "max": [
        0.9988203048706055,
        0.9992855191230774
      ],
      "min": [
        0.0007143020629882813,
        0.0007143020629882813
      ],
      "type": "VEC2"
    },
    {
      "bufferView": 0,
      "byteOffset": 164736,
      "componentType": 5125,
      "count": 25344,
      "type": "SCALAR"
    },
    {
      "bufferView": 2,
      "byteOffset": 624456,
      "componentType": 5126,
      "count": 40128,
      "max": [
        29.12012481689453,
        14.753328323364258,
        4.493086814880371
      ],
      "min": [
        -29.08924674987793,
        -14.75313663482666,
        -0.5373522639274597
      ],
      "type": "VEC3"
    },
    {
      "bufferView": 2,
      "byteOffset": 1105992,
      "componentType": 5126,
      "count": 40128,
      "max": [
        1.0,
        1.0,
        0.001068188576027751
      ],
      "min": [
        -1.0,
        -1.0,
        -0.0010681889252737164
      ],
      "type": "VEC3"
    },
    {
      "bufferView": 1,
      "byteOffset": 208152,
      "componentType": 5126,
      "count": 40128,
      "max": [
        1.0,
        1.0
      ],
      "min": [
        0.0,
        0.0
      ],
      "type": "VEC2"
    },
    {
      "bufferView": 0,
      "byteOffset": 266112,
      "componentType": 5125,
      "count": 114048,
      "type": "SCALAR"
    },
    {
      "bufferView": 2,
      "byteOffset": 1587528,
      "componentType": 5126,
      "count": 21618,
      "max": [
        29.267887115478516,
        14.90340805053711,
        4.671368598937988
      ],
      "min": [
        -29.196271896362305,
        -14.89920711517334,
        0.08890528976917267
      ],
      "type": "VEC3"
    },
    {
      "bufferView": 2,
      "byteOffset": 1846944,
      "componentType": 5126,
      "count": 21618,
      "max": [
        0.9946296215057373,
        0.998332679271698,
        0.9999637603759766
      ],
      "min": [
        -0.994601309299469,
        -0.9983201026916504,
        -0.9999669790267944
      ],
      "type": "VEC3"
    },
    {
      "bufferView": 1,
      "byteOffset": 529176,
      "componentType": 5126,
      "count": 21618,
      "max": [
        0.9909005165100098,
        0.9909005165100098
      ],
      "min": [
        0.009099483489990234,
        0.009099483489990234
      ],
      "type": "VEC2"
    },
    {
      "bufferView": 0,
      "byteOffset": 722304,
      "componentType": 5125,
      "count": 55836,
      "type": "SCALAR"
    },
    {
      "bufferView": 2,
      "byteOffset": 2106360,
      "componentType": 5126,
      "count": 13126,
      "max": [
        29.64095115661621,
        15.272955894470215,
        3.864514112472534
      ],
      "min": [
        -29.60990333557129,
        -15.2732572555542,
        -0.9646979570388794
      ],
      "type": "VEC3"
    },
    {
      "bufferView": 2,
      "byteOffset": 2263872,
      "componentType": 5126,
      "count": 13126,
      "max": [
        0.9994980096817017,
        0.999812126159668,
        0.9973095655441284
      ],
      "min": [
        -0.9994646310806274,
        -0.9998985528945923,
        -0.9970340132713318
      ],
      "type": "VEC3"
    },
    {
      "bufferView": 1,
      "byteOffset": 702120,
      "componentType": 5126,
      "count": 13126,
      "max": [
        1.0,
        0.9999999403953552
      ],
      "min": [
        0.0,
        0.0
      ],
      "type": "VEC2"
    },
    {
      "bufferView": 0,
      "byteOffset": 945648,
      "componentType": 5125,
      "count": 38016,
      "type": "SCALAR"
    },
    {
      "bufferView": 2,
      "byteOffset": 2421384,
      "componentType": 5126,
      "count": 32450,
      "max": [
        85.05261993408203,
        86.01370239257813,
        5.293125629425049
      ],
      "min": [
        -84.48262023925781,
        -84.67074584960938,
        -16.831310272216797
      ],
      "type": "VEC3"
    },
    {
      "bufferView": 2,
      "byteOffset": 2810784,
      "componentType": 5126,
      "count": 32450,
      "max": [
        0.9247567653656006,
        0.9251048564910889,
        1.0
      ],
      "min": [
        -0.924303412437439,
        -0.9241263270378113,
        -1.0
      ],
      "type": "VEC3"
    },
    {
      "bufferView": 1,
      "byteOffset": 807128,
      "componentType": 5126,
      "count": 32450,
      "max": [
        1.0,
        0.9999999403953552
      ],
      "min": [
        0.0,
        0.0
      ],
      "type": "VEC2"
    },
    {
      "bufferView": 0,
      "byteOffset": 1097712,
      "componentType": 5125,
      "count": 131778,
      "type": "SCALAR"
    },
    {
      "bufferView": 2,
      "byteOffset": 3200184,
      "componentType": 5126,
      "count": 1080,
      "max": [
        27.391647338867188,
        13.079833030700684,
        3.391317844390869
      ],
      "min": [
        -27.34332847595215,
        -13.02779483795166,
        -11.812353134155273
      ],
      "type": "VEC3"
    },
    {
      "bufferView": 2,
      "byteOffset": 3213144,
      "componentType": 5126,
      "count": 1080,
      "max": [
        1.0,
        1.0,
        0.0
      ],
      "min": [
        -1.0,
        -1.0,
        0.0
      ],
      "type": "VEC3"
    },
    {
      "bufferView": 1,
      "byteOffset": 1066728,
      "componentType": 5126,
      "count": 1080,
      "max": [
        0.9979619979858398,
        0.994367241859436
      ],
      "min": [
        0.0020380020141601563,
        0.0020380020141601563
      ],
      "type": "VEC2"
    },
    {
      "bufferView": 0,
      "byteOffset": 1624824,
      "componentType": 5125,
      "count": 2880,
      "type": "SCALAR"
    },
    {
      "bufferView": 2,
      "byteOffset": 3226104,
      "componentType": 5126,
      "count": 22408,
      "max": [
        29.263118743896484,
        14.894078254699707,
        4.666354179382324
      ],
      "min": [
        -29.23733901977539,
        -14.90306568145752,
        0.08801984786987305
      ],
      "type": "VEC3"
    },
    {
      "bufferView": 2,
      "byteOffset": 3495000,
      "componentType": 5126,
      "count": 22408,
      "max": [
        0.9957173466682434,
        0.9989456534385681,
        0.9999626874923706
      ],
      "min": [
        -0.9957401156425476,
        -0.9989400506019592,
        -0.9999639987945557
      ],
      "type": "VEC3"
    },
    {
      "bufferView": 1,
      "byteOffset": 1075368,
      "componentType": 5126,
      "count": 22408,
      "max": [
        0.9908623695373535,
        0.9902042150497437
      ],
      "min": [
        0.009099483489990234,
        0.009099483489990234
      ],
      "type": "VEC2"
    },
    {
      "bufferView": 0,
      "byteOffset": 1636344,
      "componentType": 5125,
      "count": 58212,
      "type": "SCALAR"
    }
  ],
  "asset": {
    "extras": {
      "author": "isimp4aerith (https://sketchfab.com/isimp4aerith)",
      "license": "CC-BY-4.0 (http://creativecommons.org/licenses/by/4.0/)",
      "source": "https://sketchfab.com/3d-models/mini-race-track-figure-8-01fa41e5111543c4b301b644a909a955",
      "title": "Mini Race Track: Figure 8"
    },
    "generator": "Sketchfab-12.87.0",
    "version": "2.0"
  },
  "bufferViews": [
    {
      "buffer": 0,
      "byteLength": 1869192,
      "name": "floatBufferViews",
      "target": 34963
    },
    {
      "buffer": 0,
      "byteLength": 1254632,
      "byteOffset": 1869192,
      "byteStride": 8,
      "name": "floatBufferViews",
      "target": 34962
    },
    {
      "buffer": 0,
      "byteLength": 3763896,
      "byteOffset": 3123824,
      "byteStride": 12,
      "name": "floatBufferViews",
      "target": 34962
    }
  ],
  "buffers": [
    {
      "byteLength": 6887720,
      "uri": "scene.bin"
    }
  ],
  "extensionsUsed": [
    "KHR_texture_transform"
  ],
  "images": [
    {
      "uri": "textures/asphalt_baseColor.png"
    },
    {
      "uri": "textures/wire_baseColor.png"
    },
    {
      "uri": "textures/concrete_baseColor.png"
    },
    {
      "uri": "textures/ground_baseColor.png"
    },
    {
      "uri": "textures/pillars_baseColor.png"
    }
  ],
  "materials": [
    {
      "doubleSided": true,
      "name": "asphalt",
      "pbrMetallicRoughness": {
        "baseColorTexture": {
          "index": 0
        },
        "metallicFactor": 0.46540880503144655,
        "roughnessFactor": 0.6855345911949686
      }
    },
    {
      "alphaCutoff": 0.7924528301886793,
      "alphaMode": "MASK",
      "doubleSided": true,
      "name": "wire",
      "pbrMetallicRoughness": {
        "baseColorTexture": {
          "extensions": {
            "KHR_texture_transform": {
              "scale": [
                21.000000000000004,
                21.000000000000004
              ]
            }
          },
          "index": 1
        },
        "roughnessFactor": 0.0
      }
    },
    {
      "doubleSided": true,
      "name": "railing_A",
      "pbrMetallicRoughness": {
        "baseColorFactor": [
          0.8,
          0.8,
          0.8,
          1.0
        ],
        "roughnessFactor": 0.05031446540880502
      }
    },
    {
      "doubleSided": true,
      "name": "railing_top_red",
      "pbrMetallicRoughness": {
        "baseColorFactor": [
          1.0,
          0.0,
          0.0,
          1.0
        ],
        "metallicFactor": 0.0,
        "roughnessFactor": 0.9739619240342148
      }
    },
    {
      "doubleSided": true,
      "name": "concrete",
      "pbrMetallicRoughness": {
        "baseColorTexture": {
          "index": 2
        },
        "metallicFactor": 0.0,
        "roughnessFactor": 0.9308176100628931
      }
    },
    {
      "doubleSided": true,
      "name": "ground",
      "pbrMetallicRoughness": {
        "baseColorTexture": {
          "index": 3
        },
        "metallicFactor": 0.0,
        "roughnessFactor": 0.8805031446540881
      }
    },
    {
      "doubleSided": true,
      "name": "pillars",
      "pbrMetallicRoughness": {
        "baseColorTexture": {
          "index": 4
        },
        "metallicFactor": 0.0,
        "roughnessFactor": 0.9371069182389937
      }
    },
    {
      "doubleSided": true,
      "name": "railing_top_white",
      "pbrMetallicRoughness": {
        "baseColorFactor": [
          0.841202,
          0.841202,
          0.841202,
          1.0
        ],
        "metallicFactor": 0.0,
        "roughnessFactor": 0.8969742164695652
      }
    }
  ],
  "meshes": [
    {
      "name": "asphalt_asphalt_0",
      "primitives": [
        {
          "attributes": {
            "NORMAL": 1,
            "POSITION": 0,
            "TEXCOORD_0": 2
          },
          "indices": 3,
          "material": 0,
          "mode": 4
        }
      ]
    },
    {
      "name": "railing_wiremesh_wire_0",
      "primitives": [
        {
          "attributes": {
            "NORMAL": 5,
            "POSITION": 4,
            "TEXCOORD_0": 6
          },
          "indices": 7,
          "material": 1,
          "mode": 4
        }
      ]
    },
    {
      "name": "railing_metal_railing_A_0",
      "primitives": [
        {
          "attributes": {
            "NORMAL": 9,
            "POSITION": 8,
            "TEXCOORD_0": 10
          },
          "indices": 11,
          "material": 2,
          "mode": 4
        }
      ]
    },
    {
      "name": "railing_red_railing_top_red_0",
      "primitives": [
        {
          "attributes": {
            "NORMAL": 13,
            "POSITION": 12,
            "TEXCOORD_0": 14
          },
          "indices": 15,
          "material": 3,
          "mode": 4
        }
      ]
    },
    {
      "name": "concrete_concrete_0",
      "primitives": [
        {
          "attributes": {
            "NORMAL": 17,
            "POSITION": 16,
            "TEXCOORD_0": 18
          },
          "indices": 19,
          "material": 4,
          "mode": 4
        }
      ]
    },
    {
      "name": "ground_ground_0",
      "primitives": [
        {
          "attributes": {
            "NORMAL": 21,
            "POSITION": 20,
            "TEXCOORD_0": 22
          },
          "indices": 23,
          "material": 5,
          "mode": 4
        }
      ]
    },
    {
      "name": "pillars_pillars_0",
      "primitives": [
        {
          "attributes": {
            "NORMAL": 25,
            "POSITION": 24,
            "TEXCOORD_0": 26
          },
          "indices": 27,
          "material": 6,
          "mode": 4
        }
      ]
    },
    {
      "name": "railing_white_railing_top_white_0",
      "primitives": [
        {
          "attributes": {
            "NORMAL": 29,
            "POSITION": 28,
            "TEXCOORD_0": 30
          },
          "indices": 31,
          "material": 7,
          "mode": 4
        }
      ]
    }
  ],
  "nodes": [
    {
      "children": [
        1
      ],
      "matrix": [
        1.0,
        0.0,
        0.0,
        0.0,
        0.0,
        2.220446049250313e-16,
        -1.0,
        0.0,
        0.0,
        1.0,
        2.220446049250313e-16,
        0.0,
        0.0,
        0.0,
        0.0,
        1.0
      ],
      "name": "Sketchfab_model"
    },
    {
      "children": [
        2
      ],
      "matrix": [
        0.009999999776482582,
        0.0,
        0.0,
        0.0,
        0.0,
        0.0,
        0.009999999776482582,
        0.0,
        0.0,
        -0.009999999776482582,
        0.0,
        0.0,
        0.0,
        0.0,
        0.0,
        1.0
      ],
      "name": "Race Track Figure 8.fbx"
    },
    {
      "children": [
        3,
        5,
        7,
        9,
        11,
        13,
        15,
        17
      ],
      "name": "RootNode"
    },
    {
      "children": [
        4
      ],
      "matrix": [
        100.0,
        0.0,
        0.0,
        0.0,
        0.0,
        -1.629206793918314e-05,
        -99.99999999999868,
        0.0,
        0.0,
        99.99999999999868,
        -1.629206793918314e-05,
        0.0,
        0.0,
        0.0,
        0.0,
        1.0
      ],
      "name": "asphalt"
    },
    {
      "mesh": 0,
      "name": "asphalt_asphalt_0"
    },
    {
      "children": [
        6
      ],
      "matrix": [
        100.0,
        0.0,
        0.0,
        0.0,
        0.0,
        -1.629206793918314e-05,
        -99.99999999999868,
        0.0,
        0.0,
        99.99999999999868,
        -1.629206793918314e-05,
        0.0,
        0.0,
        0.0,
        0.0,
        1.0
      ],
      "name": "railing_wiremesh"
    },
    {
      "mesh": 1,
      "name": "railing_wiremesh_wire_0"
    },
    {
      "children": [
        8
      ],
      "matrix": [
        100.0,
        0.0,
        0.0,
        0.0,
        0.0,
        -1.629206793918314e-05,
        -99.99999999999868,
        0.0,
        0.0,
        99.99999999999868,
        -1.629206793918314e-05,
        0.0,
        0.0,
        0.0,
        0.0,
        1.0
      ],
      "name": "railing_metal"
    },
    {
      "mesh": 2,
      "name": "railing_metal_railing_A_0"
    },
    {
      "children": [
        10
      ],
      "matrix": [
        100.0,
        0.0,
        0.0,
        0.0,
        0.0,
        -1.629206793918314e-05,
        -99.99999999999868,
        0.0,
        0.0,
        99.99999999999868,
        -1.629206793918314e-05,
        0.0,
        0.0,
        0.0,
        0.0,
        1.0
      ],
      "name": "railing_red"
    },
    {
      "mesh": 3,
      "name": "railing_red_railing_top_red_0"
    },
    {
      "children": [
        12
      ],
      "matrix": [
        100.0,
        0.0,
        0.0,
        0.0,
        0.0,
        -1.629206793918314e-05,
        -99.99999999999868,
        0.0,
        0.0,
        99.99999999999868,
        -1.629206793918314e-05,
        0.0,
        0.0,
        0.0,
        0.0,
        1.0
      ],
      "name": "concrete"
    },
    {
      "mesh": 4,
      "name": "concrete_concrete_0"
    },
    {
      "children": [
        14
      ],
      "matrix": [
        100.0,
        0.0,
        0.0,
        0.0,
        0.0,
        -1.629206793918314e-05,
        -99.99999999999868,
        0.0,
        0.0,
        99.99999999999868,
        -1.629206793918314e-05,
        0.0,
        0.0,
        0.0,
        0.0,
        1.0
      ],
      "name": "ground"
    },
    {
      "mesh": 5,
      "name": "ground_ground_0"
    },
    {
      "children": [
        16
      ],
      "matrix": [
        100.0,
        0.0,
        0.0,
        0.0,
        0.0,
        -1.629206793918314e-05,
        -99.99999999999868,
        0.0,
        0.0,
        99.99999999999868,
        -1.629206793918314e-05,
        0.0,
        0.0,
        0.0,
        0.0,
        1.0
      ],
      "name": "pillars"
    },
    {
      "mesh": 6,
      "name": "pillars_pillars_0"
    },
    {
      "children": [
        18
      ],
      "matrix": [
        100.0,
        0.0,
        0.0,
        0.0,
        0.0,
        -1.629206793918314e-05,
        -99.99999999999868,
        0.0,
        0.0,
        99.99999999999868,
        -1.629206793918314e-05,
        0.0,
        0.0,
        0.0,
        0.0,
        1.0
      ],
      "name": "railing_white"
    },
    {
      "mesh": 7,
      "name": "railing_white_railing_top_white_0"
    }
  ],
  "samplers": [
    {
      "magFilter": 9729,
      "minFilter": 9987,
      "wrapS": 10497,
      "wrapT": 10497
    }
  ],
  "scene": 0,
  "scenes": [
    {
      "name": "Sketchfab_Scene",
      "nodes": [
        0
      ]
    }
  ],
  "textures": [
    {
      "sampler": 0,
      "source": 0
    },
    {
      "sampler": 0,
      "source": 1
    },
    {
      "sampler": 0,
      "source": 2
    },
    {
      "sampler": 0,
      "source": 3
    },
    {
      "sampler": 0,
      "source": 4
    }
  ]
}
